<mxfile host="app.diagrams.net" modified="2023-07-10T03:04:20.875Z" agent="Mozilla/5.0 (Windows NT 10.0; Win64; x64) AppleWebKit/537.36 (KHTML, like Gecko) Chrome/114.0.0.0 Safari/537.36 Edg/114.0.1823.43" version="21.4.0" etag="qZpqPybTHmUsfKAOCZfk" type="github">
  <diagram name="第 1 页" id="sR2s843STMOJEiZcCCBK">
    <mxGraphModel>
      <root>
        <mxCell id="0" />
        <mxCell id="1" parent="0" />
      </root>
    </mxGraphModel>
  </diagram>
</mxfile>
